<svg xmlns="http://www.w3.org/2000/svg" xmlns:xlink="http://www.w3.org/1999/xlink" width="32" height="37.111" viewBox="0 0 32 37.111">
  <defs>
    <clipPath id="clip-path">
      <rect id="Rectangle" width="32" height="32" rx="10" fill="#fff4e4"/>
    </clipPath>
    <clipPath id="clip-path-2">
      <path id="Mask" d="M0,5.025c0,2,1.388,2.614,3.2,2.936v5.085c0,.374-.357.676,0,.676a40.836,40.836,0,0,1,5.215-.67,50.01,50.01,0,0,1,6.19.9c.2-.226.135-.528.135-.9V7.961c1.815-.324,3.2-.932,3.2-2.936,0-2.236-1.725-3-3.846-3h-1.45a4.348,4.348,0,0,0-7.353,0H3.845C1.724,2.027,0,2.789,0,5.025Z" transform="translate(0.397)" fill="#ffe5be"/>
    </clipPath>
  </defs>
  <g id="avatar" transform="translate(0 0)">
    <g id="Group_6" data-name="Group 6" transform="translate(0 5.111)">
      <rect id="Rectangle-2" data-name="Rectangle" width="32" height="32" rx="10" fill="#fff4e4"/>
      <g id="Group_6-2" data-name="Group 6" clip-path="url(#clip-path)">
        <path id="Fill_246" data-name="Fill 246" d="M21.012,3.962C19.716,1.528,11.385,0,11.385,0S3.055,1.528,1.759,3.962C.8,7.34,0,11.633,0,11.633H22.771a37.308,37.308,0,0,0-1.759-7.671" transform="translate(4.513 21.173)" fill="#ffd28d"/>
        <path id="Fill_248" data-name="Fill 248" d="M0,0S8.331,1.528,9.627,3.962a37.308,37.308,0,0,1,1.759,7.671H0V0" transform="translate(15.899 21.173)" fill="#fec368"/>
        <path id="Fill_249" data-name="Fill 249" d="M0,7.673H4.455V0H0Z" transform="translate(13.671 16.223)" fill="#ffd28d"/>
        <path id="Fill_250" data-name="Fill 250" d="M0,7.673H2.228V0H0Z" transform="translate(15.899 16.223)" fill="#fec368"/>
        <path id="Fill_251" data-name="Fill 251" d="M2.228,5.2A3.09,3.09,0,0,1,0,3.5V0H2.228V5.2" transform="translate(13.671 16.223)" fill="#ffd28d"/>
        <path id="Fill_252" data-name="Fill 252" d="M.978,5.445A3.909,3.909,0,0,1,0,5.312V0H2.228V5.234a3.881,3.881,0,0,1-1.25.211" transform="translate(15.899 16.223)" fill="#fec368"/>
        <path id="Fill_253" data-name="Fill 253" d="M11.633,7.468C11.633,2.707,9.029,0,5.816,0S0,2.707,0,7.468c0,6.4,2.6,8.62,5.816,8.62s5.816-2.484,5.816-8.62" transform="translate(10.206 3.847)" fill="#ffd28d"/>
        <path id="Fill_254" data-name="Fill 254" d="M1.652,4.694A2.1,2.1,0,0,1,.028,2.153,2.293,2.293,0,0,1,2.309.009,2.1,2.1,0,0,1,3.932,2.55a2.293,2.293,0,0,1-2.28,2.144" transform="translate(19.364 10.035)" fill="#ffd28d"/>
        <path id="Fill_255" data-name="Fill 255" d="M.028,2.55A2.1,2.1,0,0,1,1.65.009,2.294,2.294,0,0,1,3.932,2.153,2.1,2.1,0,0,1,2.308,4.694,2.293,2.293,0,0,1,.028,2.55" transform="translate(8.721 10.035)" fill="#ffd28d"/>
        <path id="Fill_256" data-name="Fill 256" d="M5.94,7.468C5.94,2.707,3.281,0,0,0V16.088c3.281,0,5.94-2.484,5.94-8.62" transform="translate(15.899 3.847)" fill="#fec368"/>
        <path id="Fill_257" data-name="Fill 257" d="M10.864,1.689c-.317.877-.852,1.931-1.82,1.931-1.21,0-2.075-.968-3.463-.968H5.557c-1.388,0-2.253.968-3.463.968-.968,0-1.5-1.054-1.82-1.931L0,0V2.021S.46,4.4,1.343,4.976A9.4,9.4,0,0,0,5.557,6.683h.024A9.39,9.39,0,0,0,9.795,4.976c.883-.575,1.343-2.955,1.343-2.955V0l-.274,1.689" transform="translate(10.454 13.5)" fill="#f77c42"/>
        <path id="Fill_258" data-name="Fill 258" d="M7.2,8.768A5.914,5.914,0,0,1,6.523,6.6a10.667,10.667,0,0,0,2.609,1.86C9.065,5.714,9,5.189,9.065,2.575S.783-1.411,0,2.155C0,2.155,1.1,6.547,7.2,8.768Z" transform="translate(13.176 2.752)" fill="#f77c42"/>
        <path id="Fill_259" data-name="Fill 259" d="M3.23.115C1.666-.572.811,1.991.507,3.183a10.533,10.533,0,0,0-.5,1.995c-.137.836.944.99.944.99S1.4,1.211,3.23.115Z" transform="translate(10.194 4.857)" fill="#f77c42"/>
        <path id="Fill_260" data-name="Fill 260" d="M21.012,3.215C20.255,1.792,17.1.68,14.607,0a3.219,3.219,0,0,1-3.222,3.023A3.218,3.218,0,0,1,8.164,0C5.669.68,2.516,1.792,1.759,3.215.8,6.6,0,10.89,0,10.89H22.771a37.353,37.353,0,0,0-1.759-7.676" transform="translate(4.513 21.916)" fill="#fc8b56"/>
        <path id="Fill_261" data-name="Fill 261" d="M.143.173.1.074l.039.1" transform="translate(25.304 25.133)" fill="#e6a02e"/>
        <path id="Fill_262" data-name="Fill 262" d="M9.634,3.96A3.354,3.354,0,0,1,6.247.851C4,1.451,1.241,2.379,0,3.554l.067-.248C.819,1.843,3.953.7,6.433,0a3.248,3.248,0,0,0,3.2,3.109A3.248,3.248,0,0,0,12.836,0c2.479.7,5.613,1.843,6.365,3.307l.043.113.062.169C18.083,2.4,15.293,1.457,13.021.851A3.354,3.354,0,0,1,9.634,3.96" transform="translate(6.246 21.916)" fill="#f77c42"/>
        <path id="Fill_263" data-name="Fill 263" d="M0,.282A4.29,4.29,0,0,0,4.208,3.96,4.29,4.29,0,0,0,8.415.282C8.09.181,7.769.087,7.458,0A3.288,3.288,0,0,1,4.208,3.136,3.287,3.287,0,0,1,.957,0C.646.087.325.181,0,.282" transform="translate(11.691 21.916)" fill="#ed6829"/>
        <path id="Fill_264" data-name="Fill 264" d="M1.98.5S1.835,0,.99,0A1.021,1.021,0,0,0,0,.5H1.98" transform="translate(14.909 17.213)" fill="#ffd28d"/>
      </g>
    </g>
    <g id="Path_5" data-name="Path 5" transform="translate(7.103)">
      <path id="Mask-2" data-name="Mask" d="M0,5.025c0,2,1.388,2.614,3.2,2.936v5.085c0,.374-.357.676,0,.676a40.836,40.836,0,0,1,5.215-.67,50.01,50.01,0,0,1,6.19.9c.2-.226.135-.528.135-.9V7.961c1.815-.324,3.2-.932,3.2-2.936,0-2.236-1.725-3-3.846-3h-1.45a4.348,4.348,0,0,0-7.353,0H3.845C1.724,2.027,0,2.789,0,5.025Z" transform="translate(0.397)" fill="#ffe5be"/>
      <g id="Path_5-2" data-name="Path 5" clip-path="url(#clip-path-2)">
        <path id="Path_6" data-name="Path 6" d="M10.577,13.052V0L0,2.645,1.583,14.38l4.781.766Z" transform="translate(-1.658)" fill="#f9d7a2"/>
      </g>
    </g>
  </g>
</svg>
